<?xml version="1.0" encoding="UTF-8"?>
<mxfile host="app.diagrams.net" modified="2025-01-28T10:00:00.000Z" agent="5.0" etag="xxx" version="22.1.16" type="device">
  <diagram name="Database Schema" id="database">
    <mxGraphModel dx="1422" dy="794" grid="1" gridSize="10" guides="1" tooltips="1" connect="1" arrows="1" fold="1" page="1" pageScale="1" pageWidth="1169" pageHeight="827" math="0" shadow="0">
      <root>
        <mxCell id="0" />
        <mxCell id="1" parent="0" />
        
        <!-- Title -->
        <mxCell id="title" value="ECommerce Database Schema (MongoDB)" style="text;html=1;strokeColor=none;fillColor=none;align=center;verticalAlign=middle;whiteSpace=wrap;rounded=0;fontSize=24;fontStyle=1;" vertex="1" parent="1">
          <mxGeometry x="400" y="20" width="300" height="40" as="geometry" />
        </mxCell>

        <!-- Core Entities -->
        <mxCell id="core-title" value="Core Entities" style="text;html=1;strokeColor=none;fillColor=none;align=center;verticalAlign=middle;whiteSpace=wrap;rounded=0;fontSize=18;fontStyle=1;" vertex="1" parent="1">
          <mxGeometry x="40" y="80" width="200" height="30" as="geometry" />
        </mxCell>

        <!-- USERS Collection -->
        <mxCell id="users" value="users" style="rounded=1;whiteSpace=wrap;html=1;fillColor=#dae8fc;strokeColor=#6c8ebf;fontStyle=1;" vertex="1" parent="1">
          <mxGeometry x="40" y="120" width="120" height="60" as="geometry" />
        </mxCell>
        
        <mxCell id="users-fields" value="_id: ObjectId (PK)&#xa;email: String (UK)&#xa;username: String (UK)&#xa;password: String&#xa;role: String&#xa;team_id: ObjectId (FK)&#xa;created_at: String&#xa;updated_at: String" style="text;html=1;strokeColor=none;fillColor=#f8f9fa;align=left;verticalAlign=top;whiteSpace=wrap;rounded=1;fontSize=10;" vertex="1" parent="1">
          <mxGeometry x="40" y="190" width="120" height="120" as="geometry" />
        </mxCell>

        <!-- TEAMS Collection -->
        <mxCell id="teams" value="teams" style="rounded=1;whiteSpace=wrap;html=1;fillColor=#dae8fc;strokeColor=#6c8ebf;fontStyle=1;" vertex="1" parent="1">
          <mxGeometry x="200" y="120" width="120" height="60" as="geometry" />
        </mxCell>
        
        <mxCell id="teams-fields" value="_id: ObjectId (PK)&#xa;name: String" style="text;html=1;strokeColor=none;fillColor=#f8f9fa;align=left;verticalAlign=top;whiteSpace=wrap;rounded=1;fontSize=10;" vertex="1" parent="1">
          <mxGeometry x="200" y="190" width="120" height="60" as="geometry" />
        </mxCell>

        <!-- PRODUCT_IDEALS Collection -->
        <mxCell id="product-ideals" value="product_ideals" style="rounded=1;whiteSpace=wrap;html=1;fillColor=#d5e8d4;strokeColor=#82b366;fontStyle=1;" vertex="1" parent="1">
          <mxGeometry x="360" y="120" width="120" height="60" as="geometry" />
        </mxCell>
        
        <mxCell id="product-ideals-fields" value="_id: ObjectId (PK)&#xa;item_id: String (UK)&#xa;title: String&#xa;description: String&#xa;banner: String&#xa;images: Array&#xa;png: String&#xa;market: String&#xa;store: String&#xa;tags: Array&#xa;hey_etsy_tags: Array&#xa;product_type: String&#xa;daily_views: Number&#xa;views_24h: Number&#xa;total_views: Number&#xa;estimated_revenue: Number&#xa;rate_favorite: Number&#xa;total_farvorites: Number&#xa;sold_24h: Number&#xa;total_sold: Number&#xa;team_ids: Array&#xa;user_ids: Array&#xa;campaign_ids: Array&#xa;created_at: Number&#xa;updated_at: Number" style="text;html=1;strokeColor=none;fillColor=#f8f9fa;align=left;verticalAlign=top;whiteSpace=wrap;rounded=1;fontSize=10;" vertex="1" parent="1">
          <mxGeometry x="360" y="190" width="120" height="280" as="geometry" />
        </mxCell>

        <!-- DESIGNS Collection -->
        <mxCell id="designs" value="designs" style="rounded=1;whiteSpace=wrap;html=1;fillColor=#ffe6cc;strokeColor=#d79b00;fontStyle=1;" vertex="1" parent="1">
          <mxGeometry x="520" y="120" width="120" height="60" as="geometry" />
        </mxCell>
        
        <mxCell id="designs-fields" value="_id: ObjectId (PK)&#xa;title: String&#xa;banner: String&#xa;images: Array&#xa;product_ideal_id: ObjectId (FK)&#xa;seller_id: ObjectId (FK)&#xa;designer_id: ObjectId (FK)&#xa;seller_note: String&#xa;status: Number&#xa;product_type: Array&#xa;design_links: Array&#xa;mockup_renders: Object&#xa;mockup_selects: Array&#xa;template_link: Array&#xa;comments: Array&#xa;required_tasks: Object&#xa;designer_result: Object&#xa;team_id: ObjectId (FK)&#xa;order_by_user_id: ObjectId (FK)&#xa;iscompleted: Number&#xa;created_at: String&#xa;updated_at: String" style="text;html=1;strokeColor=none;fillColor=#f8f9fa;align=left;verticalAlign=top;whiteSpace=wrap;rounded=1;fontSize=10;" vertex="1" parent="1">
          <mxGeometry x="520" y="190" width="120" height="280" as="geometry" />
        </mxCell>

        <!-- Supporting Entities -->
        <mxCell id="supporting-title" value="Supporting Entities" style="text;html=1;strokeColor=none;fillColor=none;align=center;verticalAlign=middle;whiteSpace=wrap;rounded=0;fontSize=18;fontStyle=1;" vertex="1" parent="1">
          <mxGeometry x="680" y="80" width="200" height="30" as="geometry" />
        </mxCell>

        <!-- MOCKUPS Collection -->
        <mxCell id="mockups" value="mockups" style="rounded=1;whiteSpace=wrap;html=1;fillColor=#e1d5e7;strokeColor=#9673a6;fontStyle=1;" vertex="1" parent="1">
          <mxGeometry x="680" y="120" width="120" height="60" as="geometry" />
        </mxCell>
        
        <mxCell id="mockups-fields" value="_id: ObjectId (PK)&#xa;name: String&#xa;status: String&#xa;team_id: ObjectId (FK)&#xa;user_id: ObjectId (FK)&#xa;product_type: ObjectId (FK)&#xa;images: Array&#xa;events: Array&#xa;created_at: String&#xa;updated_at: String" style="text;html=1;strokeColor=none;fillColor=#f8f9fa;align=left;verticalAlign=top;whiteSpace=wrap;rounded=1;fontSize=10;" vertex="1" parent="1">
          <mxGeometry x="680" y="190" width="120" height="160" as="geometry" />
        </mxCell>

        <!-- PRODUCT_TYPES Collection -->
        <mxCell id="product-types" value="product_types" style="rounded=1;whiteSpace=wrap;html=1;fillColor=#e1d5e7;strokeColor=#9673a6;fontStyle=1;" vertex="1" parent="1">
          <mxGeometry x="840" y="120" width="120" height="60" as="geometry" />
        </mxCell>
        
        <mxCell id="product-types-fields" value="_id: ObjectId (PK)&#xa;name: String&#xa;description: String" style="text;html=1;strokeColor=none;fillColor=#f8f9fa;align=left;verticalAlign=top;whiteSpace=wrap;rounded=1;fontSize=10;" vertex="1" parent="1">
          <mxGeometry x="840" y="190" width="120" height="80" as="geometry" />
        </mxCell>

        <!-- SHOPS Collection -->
        <mxCell id="shops" value="shops" style="rounded=1;whiteSpace=wrap;html=1;fillColor=#e1d5e7;strokeColor=#9673a6;fontStyle=1;" vertex="1" parent="1">
          <mxGeometry x="1000" y="120" width="120" height="60" as="geometry" />
        </mxCell>
        
        <mxCell id="shops-fields" value="_id: ObjectId (PK)&#xa;name: String&#xa;email: String&#xa;seller_id: ObjectId (FK)&#xa;team_id: ObjectId (FK)&#xa;created_at: String&#xa;updated_at: String" style="text;html=1;strokeColor=none;fillColor=#f8f9fa;align=left;verticalAlign=top;whiteSpace=wrap;rounded=1;fontSize=10;" vertex="1" parent="1">
          <mxGeometry x="1000" y="190" width="120" height="120" as="geometry" />
        </mxCell>

        <!-- Workflow Entities -->
        <mxCell id="workflow-title" value="Workflow Entities" style="text;html=1;strokeColor=none;fillColor=none;align=center;verticalAlign=middle;whiteSpace=wrap;rounded=0;fontSize=18;fontStyle=1;" vertex="1" parent="1">
          <mxGeometry x="40" y="500" width="200" height="30" as="geometry" />
        </mxCell>

        <!-- DESIGN_ACTIONS Collection -->
        <mxCell id="design-actions" value="design_actions" style="rounded=1;whiteSpace=wrap;html=1;fillColor=#f8cecc;strokeColor=#b85450;fontStyle=1;" vertex="1" parent="1">
          <mxGeometry x="40" y="540" width="120" height="60" as="geometry" />
        </mxCell>
        
        <mxCell id="design-actions-fields" value="_id: ObjectId (PK)&#xa;type: String&#xa;title: String&#xa;title_en: String&#xa;product_type: String&#xa;name: String&#xa;ideal_banner: String&#xa;png: String&#xa;worker: String&#xa;status: String&#xa;created_at: String&#xa;created_by: String&#xa;banners: Array&#xa;main_image: String&#xa;mockups: Array&#xa;events: Array&#xa;ideal_id: ObjectId (FK)" style="text;html=1;strokeColor=none;fillColor=#f8f9fa;align=left;verticalAlign=top;whiteSpace=wrap;rounded=1;fontSize=10;" vertex="1" parent="1">
          <mxGeometry x="40" y="610" width="120" height="200" as="geometry" />
        </mxCell>

        <!-- TEAMEXP_DESIGN_COLUMNS Collection -->
        <mxCell id="design-columns" value="teamexp_design_columns" style="rounded=1;whiteSpace=wrap;html=1;fillColor=#f8cecc;strokeColor=#b85450;fontStyle=1;" vertex="1" parent="1">
          <mxGeometry x="200" y="540" width="120" height="60" as="geometry" />
        </mxCell>
        
        <mxCell id="design-columns-fields" value="_id: ObjectId (PK)&#xa;title: String&#xa;taskIds: Array" style="text;html=1;strokeColor=none;fillColor=#f8f9fa;align=left;verticalAlign=top;whiteSpace=wrap;rounded=1;fontSize=10;" vertex="1" parent="1">
          <mxGeometry x="200" y="610" width="120" height="80" as="geometry" />
        </mxCell>

        <!-- Collaboration Entities -->
        <mxCell id="collab-title" value="Collaboration Entities" style="text;html=1;strokeColor=none;fillColor=none;align=center;verticalAlign=middle;whiteSpace=wrap;rounded=0;fontSize=18;fontStyle=1;" vertex="1" parent="1">
          <mxGeometry x="360" y="500" width="200" height="30" as="geometry" />
        </mxCell>

        <!-- TAGS Collection -->
        <mxCell id="tags" value="tags" style="rounded=1;whiteSpace=wrap;html=1;fillColor=#fff2cc;strokeColor=#d6b656;fontStyle=1;" vertex="1" parent="1">
          <mxGeometry x="360" y="540" width="120" height="60" as="geometry" />
        </mxCell>
        
        <mxCell id="tags-fields" value="_id: ObjectId (PK)&#xa;name: String&#xa;display_name: String&#xa;team_id: ObjectId (FK)&#xa;user_id: ObjectId (FK)&#xa;usage_count: Number&#xa;created_at: Number&#xa;updated_at: Number" style="text;html=1;strokeColor=none;fillColor=#f8f9fa;align=left;verticalAlign=top;whiteSpace=wrap;rounded=1;fontSize=10;" vertex="1" parent="1">
          <mxGeometry x="360" y="610" width="120" height="140" as="geometry" />
        </mxCell>

        <!-- NOTES Collection -->
        <mxCell id="notes" value="notes" style="rounded=1;whiteSpace=wrap;html=1;fillColor=#fff2cc;strokeColor=#d6b656;fontStyle=1;" vertex="1" parent="1">
          <mxCell id="notes" value="notes" style="rounded=1;whiteSpace=wrap;html=1;fillColor=#fff2cc;strokeColor=#d6b656;fontStyle=1;" vertex="1" parent="1">
            <mxGeometry x="520" y="540" width="120" height="60" as="geometry" />
          </mxCell>
        </mxCell>
        
        <mxCell id="notes-fields" value="_id: ObjectId (PK)&#xa;content: String&#xa;ideal_id: ObjectId (FK)&#xa;design_id: ObjectId (FK)&#xa;user_id: ObjectId (FK)&#xa;team_id: ObjectId (FK)&#xa;note_type: String&#xa;image_url: String&#xa;created_at: Number&#xa;updated_at: Number" style="text;html=1;strokeColor=none;fillColor=#f8f9fa;align=left;verticalAlign=top;whiteSpace=wrap;rounded=1;fontSize=10;" vertex="1" parent="1">
          <mxGeometry x="520" y="610" width="120" height="160" as="geometry" />
        </mxCell>

        <!-- Relationships -->
        <mxCell id="rel1" value="1:N" style="edgeStyle=orthogonalEdgeStyle;rounded=0;orthogonalLoop=1;jettySize=auto;html=1;strokeColor=#666666;strokeWidth=2;" edge="1" parent="1" source="teams" target="users">
          <mxGeometry relative="1" as="geometry" />
        </mxCell>
        
        <mxCell id="rel2" value="1:N" style="edgeStyle=orthogonalEdgeStyle;rounded=0;orthogonalLoop=1;jettySize=auto;html=1;strokeColor=#666666;strokeWidth=2;" edge="1" parent="1" source="users" target="product-ideals">
          <mxGeometry relative="1" as="geometry" />
        </mxCell>
        
        <mxCell id="rel3" value="1:N" style="edgeStyle=orthogonalEdgeStyle;rounded=0;orthogonalLoop=1;jettySize=auto;html=1;strokeColor=#666666;strokeWidth=2;" edge="1" parent="1" source="product-ideals" target="designs">
          <mxGeometry relative="1" as="geometry" />
        </mxCell>
        
        <mxCell id="rel4" value="1:N" style="edgeStyle=orthogonalEdgeStyle;rounded=0;orthogonalLoop=1;jettySize=auto;html=1;strokeColor=#666666;strokeWidth=2;" edge="1" parent="1" source="product-types" target="mockups">
          <mxGeometry relative="1" as="geometry" />
        </mxCell>
        
        <mxCell id="rel5" value="1:N" style="edgeStyle=orthogonalEdgeStyle;rounded=0;orthogonalLoop=1;jettySize=auto;html=1;strokeColor=#666666;strokeWidth=2;" edge="1" parent="1" source="users" target="shops">
          <mxGeometry relative="1" as="geometry" />
        </mxCell>
        
        <mxCell id="rel6" value="1:N" style="edgeStyle=orthogonalEdgeStyle;rounded=0;orthogonalLoop=1;jettySize=auto;html=1;strokeColor=#666666;strokeWidth=2;" edge="1" parent="1" source="product-ideals" target="design-actions">
          <mxGeometry relative="1" as="geometry" />
        </mxCell>
        
        <mxCell id="rel7" value="1:N" style="edgeStyle=orthogonalEdgeStyle;rounded=0;orthogonalLoop=1;jettySize=auto;html=1;strokeColor=#666666;strokeWidth=2;" edge="1" parent="1" source="designs" target="design-columns">
          <mxGeometry relative="1" as="geometry" />
        </mxCell>

        <!-- Legend -->
        <mxCell id="legend-title" value="Legend" style="text;html=1;strokeColor=none;fillColor=none;align=center;verticalAlign=middle;whiteSpace=wrap;rounded=0;fontSize=16;fontStyle=1;" vertex="1" parent="1">
          <mxGeometry x="680" y="500" width="100" height="30" as="geometry" />
        </mxCell>
        
        <mxCell id="legend-core" value="Core Entities" style="rounded=1;whiteSpace=wrap;html=1;fillColor=#dae8fc;strokeColor=#6c8ebf;fontSize=12;" vertex="1" parent="1">
          <mxGeometry x="680" y="540" width="120" height="30" as="geometry" />
        </mxCell>
        
        <mxCell id="legend-product" value="Product Management" style="rounded=1;whiteSpace=wrap;html=1;fillColor=#d5e8d4;strokeColor=#82b366;fontSize=12;" vertex="1" parent="1">
          <mxGeometry x="680" y="580" width="120" height="30" as="geometry" />
        </mxCell>
        
        <mxCell id="legend-workflow" value="Workflow Management" style="rounded=1;whiteSpace=wrap;html=1;fillColor=#ffe6cc;strokeColor=#d79b00;fontSize=12;" vertex="1" parent="1">
          <mxGeometry x="680" y="620" width="120" height="30" as="geometry" />
        </mxCell>
        
        <mxCell id="legend-support" value="Supporting Entities" style="rounded=1;whiteSpace=wrap;html=1;fillColor=#e1d5e7;strokeColor=#9673a6;fontSize=12;" vertex="1" parent="1">
          <mxGeometry x="680" y="660" width="120" height="30" as="geometry" />
        </mxCell>
        
        <mxCell id="legend-collab" value="Collaboration" style="rounded=1;whiteSpace=wrap;html=1;fillColor=#fff2cc;strokeColor=#d6b656;fontSize=12;" vertex="1" parent="1">
          <mxGeometry x="680" y="700" width="120" height="30" as="geometry" />
        </mxCell>
        
        <mxCell id="legend-automation" value="Automation" style="rounded=1;whiteSpace=wrap;html=1;fillColor=#f8cecc;strokeColor=#b85450;fontSize=12;" vertex="1" parent="1">
          <mxGeometry x="680" y="740" width="120" height="30" as="geometry" />
        </mxCell>

        <!-- Key Features -->
        <mxCell id="features-title" value="Key Database Features" style="text;html=1;strokeColor=none;fillColor=none;align=center;verticalAlign=middle;whiteSpace=wrap;rounded=0;fontSize=16;fontStyle=1;" vertex="1" parent="1">
          <mxGeometry x="840" y="500" width="200" height="30" as="geometry" />
        </mxCell>
        
        <mxCell id="features-list" value="• Multi-tenancy with team isolation&#xa;• Flexible sharing with team_ids/user_ids arrays&#xa;• Workflow management with status tracking&#xa;• Image and file management with AWS S3&#xa;• Tag-based categorization system&#xa;• Collaboration with notes and comments&#xa;• Automation with design_actions&#xa;• Kanban board with column management&#xa;• Role-based access control&#xa;• Audit trails with timestamps" style="text;html=1;strokeColor=none;fillColor=#f8f9fa;align=left;verticalAlign=top;whiteSpace=wrap;rounded=1;fontSize=11;" vertex="1" parent="1">
          <mxGeometry x="840" y="540" width="280" height="200" as="geometry" />
        </mxCell>

      </root>
    </mxGraphModel>
  </diagram>
</mxfile> 